<svg xmlns="http://www.w3.org/2000/svg" width="1200" height="420" viewBox="0 0 1200 420">
  <defs><filter id="ink"><feTurbulence type="fractalNoise" baseFrequency=".9" numOctaves="2" seed="7"/><feDisplacementMap in="SourceGraphic" scale="3.2"/></filter></defs>
  <style>
    @keyframes flow { to { stroke-dashoffset: -20; } } .flow { stroke-dasharray: 4 6; animation: flow 1.2s linear infinite; }
    @keyframes grow { from { transform: scaleX(0); } to { transform: scaleX(1); } } .bar { transform-box: fill-box; transform-origin: left; animation: grow 1s cubic-bezier(.2,.7,.2,1) both; }
  </style>
  <rect x=".5" y=".5" width="1199" height="419" fill="#121419" stroke="#3a3a38"/>
  <text x="56" y="56" font-family="'JetBrains Mono','SFMono-Regular',Consolas,'Liberation Mono',monospace" font-size="13" fill="#c24b43">M-01</text>
  <text x="112" y="58" font-family="'Shippori Mincho B1','Hiragino Mincho ProN','Yu Mincho',Georgia,'Times New Roman',serif" font-weight="800" font-size="34" fill="#d9cfb8">MTOA Access Link Register</text>
  <g transform="rotate(-3 1100 44)"><rect x="1040" y="30" width="112" height="28" fill="none" stroke="#c24b43" stroke-width="1.5"/><text x="1096" y="49" text-anchor="middle" font-family="'JetBrains Mono','SFMono-Regular',Consolas,'Liberation Mono',monospace" font-size="12" letter-spacing="3" fill="#c24b43">ACTIVE</text></g>
  <text x="112" y="90" font-family="'JetBrains Mono','SFMono-Regular',Consolas,'Liberation Mono',monospace" font-size="14" fill="#c9c3b6">Access links in one place. Private means private, even for the admin.</text>
  <text x="112" y="114" font-family="'JetBrains Mono','SFMono-Regular',Consolas,'Liberation Mono',monospace" font-size="12.5" fill="#948e81">Flask · SQLAlchemy · Alembic · PostgreSQL · Pytest</text>
  <g font-family="'JetBrains Mono','SFMono-Regular',Consolas,'Liberation Mono',monospace" font-size="12.5" fill="#ece7dc" transform="translate(160 150)">
    <rect x="0" y="56" width="104" height="40" fill="#0b0c0f" stroke="#3a3a38"/><text x="52" y="80" text-anchor="middle">browser</text>
    <rect x="140" y="0" width="390" height="150" fill="none" stroke="#c24b43" stroke-dasharray="4 4"/>
    <text x="152" y="20" fill="#948e81">security: auth · OTP · RBAC · CSRF</text>
    <text x="152" y="38" fill="#948e81">rate limit · sessions</text>
    <rect x="164" y="56" width="120" height="40" fill="#0b0c0f" stroke="#3a3a38"/><text x="224" y="80" text-anchor="middle">routes</text>
    <rect x="370" y="56" width="126" height="40" fill="#0b0c0f" stroke="#3a3a38"/><text x="433" y="80" text-anchor="middle">services</text>
    <text x="433" y="118" text-anchor="middle" fill="#948e81">rules · validation</text>
    <rect x="560" y="56" width="110" height="40" fill="#0b0c0f" stroke="#3a3a38"/><text x="615" y="80" text-anchor="middle">models</text>
    <rect x="712" y="50" width="138" height="52" fill="#0b0c0f" stroke="#3a3a38"/><text x="781" y="80" text-anchor="middle">PostgreSQL</text>
    <rect x="620" y="124" width="126" height="34" fill="#0b0c0f" stroke="#3a3a38"/><text x="683" y="146" text-anchor="middle">audit log</text>
    <path class="flow" d="M104 76H164M284 76H370M496 76H560M670 76H712" stroke="#d0703a" fill="none"/>
    <path d="M496 90 Q560 140 620 141" stroke="#948e81" fill="none"/>
  </g>
  <text x="56" y="336" font-family="'JetBrains Mono','SFMono-Regular',Consolas,'Liberation Mono',monospace" font-size="12" letter-spacing="2" fill="#948e81">FEATURE STATUS · 14 FEATURES ON RECORD</text>
  <rect class="bar" x="56.0" y="352" width="695.4" height="8" fill="#9fb49a" opacity="1"/><text x="56.0" y="384" font-family="'JetBrains Mono','SFMono-Regular',Consolas,'Liberation Mono',monospace" font-size="12" fill="#9fb49a">9 implemented</text><rect class="bar" x="755.4" y="352" width="306.9" height="8" fill="#d0703a" opacity="1"/><text x="755.4" y="384" font-family="'JetBrains Mono','SFMono-Regular',Consolas,'Liberation Mono',monospace" font-size="12" fill="#d0703a">4 in progress</text><rect class="bar" x="1066.3" y="352" width="73.7" height="8" fill="#948e81" opacity="0.5"/><text x="1066.3" y="384" font-family="'JetBrains Mono','SFMono-Regular',Consolas,'Liberation Mono',monospace" font-size="12" fill="#948e81">1 planned</text>
</svg>